<?xml version="1.0" encoding="utf-8"?>
<!-- Generator: Adobe Illustrator 16.0.3, SVG Export Plug-In . SVG Version: 6.00 Build 0)  -->
<!DOCTYPE svg PUBLIC "-//W3C//DTD SVG 1.1//EN" "http://www.w3.org/Graphics/SVG/1.1/DTD/svg11.dtd">
<svg version="1.1" id="Layer_1" xmlns="http://www.w3.org/2000/svg" xmlns:xlink="http://www.w3.org/1999/xlink" x="0px" y="0px"
	 width="1266.883px" height="451.186px" viewBox="0 0 1266.883 451.186" enable-background="new 0 0 1266.883 451.186"
	 xml:space="preserve">
<g>
	<g>
		<path fill="#FFFFFF" d="M564.175,221.616H541.72v-46.303h-50.949v46.303h-22.453V107.642h22.453v45.992h50.949v-45.992h22.455
			V221.616z"/>
		<path fill="#FFFFFF" d="M594.448,135.824c5.211-8.98,12.285-16.129,21.215-21.446c8.929-5.317,18.609-7.976,29.036-7.976
			c10.428,0,20.105,2.658,29.036,7.976s16.054,12.466,21.371,21.446c5.313,8.982,7.974,18.637,7.974,28.958
			c0,10.531-2.661,20.237-7.974,29.113c-5.317,8.881-12.44,15.927-21.371,21.141c-8.931,5.213-18.608,7.82-29.036,7.82
			c-10.531,0-20.234-2.607-29.113-7.82c-8.879-5.214-15.926-12.26-21.138-21.141c-5.213-8.876-7.82-18.582-7.82-29.113
			C586.628,154.461,589.235,144.807,594.448,135.824z M614.58,183.056c3.149,5.577,7.434,9.989,12.853,13.242
			c5.421,3.252,11.434,4.876,18.042,4.876c6.399,0,12.233-1.624,17.499-4.876c5.266-3.253,9.393-7.64,12.388-13.164
			c2.994-5.521,4.488-11.639,4.488-18.352c0-6.812-1.546-13.006-4.644-18.583c-3.097-5.574-7.304-9.986-12.619-13.239
			c-5.319-3.252-11.229-4.879-17.731-4.879c-6.506,0-12.417,1.627-17.732,4.879c-5.317,3.253-9.525,7.665-12.622,13.239
			c-3.097,5.577-4.646,11.771-4.646,18.583C609.856,171.392,611.431,177.481,614.58,183.056z"/>
		<path fill="#FFFFFF" d="M790.732,107.642v21.68h-27.724v92.295h-22.452v-92.295h-26.635v-21.68H790.732z"/>
		<path fill="#FFFFFF" d="M890.15,107.642v21.68h-55.286v24.313h48.937v21.68h-48.937v24.623h57.454v21.68h-79.906V107.642H890.15z"
			/>
		<path fill="#FFFFFF" d="M937.998,107.642v92.295h53.583v21.68h-76.036V107.642H937.998z"/>
		<path fill="#FFFFFF" d="M1092.546,107.642v21.68h-55.286v24.313h48.937v21.68h-48.937v24.623h57.455v21.68h-79.907V107.642
			H1092.546z"/>
		<path fill="#FFFFFF" d="M1152.938,126.997c-4.955,0-8.804,0.982-11.538,2.944c-2.738,1.961-4.104,4.904-4.104,8.826
			c0,3.613,1.987,6.788,5.961,9.522c3.975,2.736,9.271,5.344,15.875,7.82c5.369,1.964,9.965,4.208,13.783,6.736
			c3.818,2.531,6.993,6.016,9.521,10.454c2.531,4.44,3.797,10.066,3.797,16.88c0,5.884-1.525,11.33-4.566,16.337
			c-3.049,5.009-7.516,8.982-13.398,11.924c-5.884,2.941-12.907,4.415-21.063,4.415c-6.812,0-13.572-1.007-20.284-3.021
			c-6.713-2.014-12.959-5.082-18.738-9.214l9.909-17.498c3.922,2.892,8.414,5.265,13.477,7.122c5.054,1.86,9.598,2.789,13.624,2.789
			c4.751,0,8.881-1.007,12.389-3.02c3.512-2.016,5.27-5.289,5.27-9.834c0-5.885-5.529-10.995-16.569-15.332
			c-6.506-2.578-11.927-5.056-16.264-7.434c-4.332-2.374-8.077-5.779-11.227-10.22c-3.153-4.438-4.726-10.013-4.726-16.726
			c0-9.806,3.231-17.703,9.681-23.692c6.449-5.986,15.045-9.237,25.783-9.756c8.466,0,15.537,0.955,21.217,2.863
			c5.677,1.912,11.201,4.622,16.57,8.132l-8.519,17.188C1168.89,129.733,1160.268,126.997,1152.938,126.997z"/>
	</g>
</g>
<path fill="#FFFFFF" d="M226.222,74.129c-83.894,0-151.909,68.013-151.909,151.911c0,83.897,68.015,151.913,151.909,151.913
	c83.902,0,151.909-68.016,151.909-151.913C378.131,142.142,310.124,74.129,226.222,74.129z M211.544,259.071
	c8.28,8.405,19.062,12.604,32.362,12.604c11.538,0,21.075-3.132,28.604-9.408l26.336,33.113
	c-7.278,5.779-16.367,10.419-27.278,13.927c-10.911,3.507-21.641,5.27-32.176,5.27c-28.6,0-51.243-7.715-67.925-23.145
	c-16.682-15.429-25.023-36.689-25.023-63.782c0-17.559,4.078-32.928,12.229-46.096c8.155-13.172,18.876-23.202,32.176-30.104
	c13.291-6.896,27.597-10.348,42.897-10.348c27.343,0,49.545,7.278,66.607,21.824l-25.589,33.867
	C263.974,188.27,251.932,184,238.64,184c-11.045,0-20.384,4.14-28.034,12.416c-7.658,8.281-11.481,18.693-11.481,31.234
	C199.125,240.194,203.268,250.67,211.544,259.071z"/>
<g>
	<path fill="#FFFFFF" d="M751.532,361.357c-6.298,2.376-13.166,3.568-20.596,3.568c-11.874,0-22.198-2.583-30.976-7.745
		c-8.772-5.162-15.485-12.104-20.129-20.829c-4.647-8.721-6.967-18.298-6.967-28.729c0-11.455,2.319-21.675,6.967-30.659
		c4.644-8.985,11.149-15.974,19.512-20.984c8.362-5.002,18.013-7.508,28.958-7.508c6.916,0,13.317,0.925,19.205,2.786
		c5.883,1.857,11.045,4.182,15.485,6.968l-8.829,21.218c-8.155-6.194-16.519-9.296-25.088-9.296c-5.779,0-11.2,1.606-16.259,4.803
		c-5.059,3.201-9.084,7.563-12.077,13.089c-2.998,5.521-4.492,11.637-4.492,18.349c0,7.331,1.395,13.758,4.181,19.278
		c2.786,5.524,6.76,9.836,11.927,12.929c5.157,3.102,11.2,4.647,18.116,4.647c5.576,0,10.582-0.902,15.022-2.708
		c4.437-1.806,7.948-3.952,10.527-6.428l9.291,20.134C762.422,356.614,757.826,358.986,751.532,361.357z"/>
	<path fill="#FFFFFF" d="M788.62,277.892c5.213-8.98,12.284-16.13,21.217-21.447c8.929-5.316,18.604-7.974,29.036-7.974
		c10.423,0,20.104,2.657,29.036,7.974c8.929,5.317,16.051,12.467,21.368,21.447c5.317,8.979,7.975,18.639,7.975,28.958
		c0,10.53-2.657,20.236-7.975,29.113c-5.317,8.881-12.439,15.926-21.368,21.14c-8.933,5.214-18.613,7.823-29.036,7.823
		c-10.531,0-20.237-2.609-29.113-7.823c-8.881-5.214-15.927-12.259-21.14-21.14c-5.214-8.877-7.818-18.583-7.818-29.113
		C780.802,296.53,783.406,286.871,788.62,277.892z M808.753,325.125c3.145,5.572,7.43,9.987,12.851,13.239
		c5.421,3.253,11.434,4.877,18.043,4.877c6.397,0,12.232-1.624,17.498-4.877c5.266-3.252,9.396-7.641,12.389-13.161
		s4.492-11.642,4.492-18.354c0-6.813-1.551-13.007-4.647-18.583c-3.098-5.576-7.305-9.986-12.622-13.239s-11.227-4.881-17.731-4.881
		c-6.501,0-12.414,1.628-17.728,4.881c-5.321,3.253-9.524,7.663-12.621,13.239c-3.098,5.576-4.648,11.771-4.648,18.583
		C804.027,313.458,805.6,319.549,808.753,325.125z"/>
	<path fill="#FFFFFF" d="M954.701,269.066c-4.954,0-8.803,0.98-11.537,2.941s-4.104,4.903-4.104,8.825
		c0,3.615,1.986,6.79,5.961,9.524c3.974,2.734,9.265,5.343,15.874,7.822c5.369,1.962,9.961,4.208,13.783,6.734
		c3.818,2.531,6.993,6.018,9.524,10.453c2.527,4.44,3.793,10.069,3.793,16.881c0,5.884-1.524,11.33-4.57,16.337
		c-3.045,5.006-7.507,8.979-13.395,11.926c-5.883,2.938-12.907,4.415-21.058,4.415c-6.816,0-13.576-1.011-20.289-3.024
		c-6.712-2.013-12.958-5.079-18.738-9.213l9.913-17.499c3.923,2.895,8.41,5.266,13.473,7.123c5.055,1.862,9.599,2.786,13.629,2.786
		c4.747,0,8.876-1.002,12.388-3.015c3.508-2.018,5.266-5.292,5.266-9.836c0-5.888-5.524-10.993-16.569-15.33
		c-6.505-2.583-11.927-5.058-16.263-7.438c-4.337-2.371-8.078-5.779-11.227-10.22c-3.149-4.436-4.722-10.013-4.722-16.725
		c0-9.806,3.223-17.702,9.676-23.688c6.453-5.987,15.045-9.239,25.783-9.758c8.467,0,15.537,0.954,21.218,2.863
		c5.676,1.909,11.2,4.622,16.569,8.13l-8.518,17.191C970.653,271.801,962.031,269.066,954.701,269.066z"/>
	<path fill="#FFFFFF" d="M1079.052,249.706v21.685h-27.719v92.291h-22.452v-92.291h-26.639v-21.685H1079.052z"/>
	<path fill="#FFFFFF" d="M1147.814,341.384h-37.787l-9.292,22.298h-22.146l51.415-118.468h1.235l51.415,118.468h-26.017
		L1147.814,341.384z M1140.381,322.49l-10.998-27.718l-11.46,27.718H1140.381z"/>
</g>
<g>
	<path fill="#FFFFFF" d="M470.672,251.205h11.119c5.801,0,10.634,1.21,14.5,3.629c3.866,2.414,6.7,5.477,8.497,9.183
		c1.792,3.706,2.691,7.538,2.691,11.499c0,4.786-1.084,9.011-3.244,12.669c-2.164,3.659-5.032,6.492-8.6,8.492
		c-3.568,2.004-7.421,3.007-11.563,3.007h-13.399V251.205z M483.449,298.37c4.143,0,7.939-0.941,11.395-2.829
		c3.452-1.888,6.19-4.57,8.216-8.048c2.026-3.473,3.037-7.489,3.037-12.047c0-3.775-0.864-7.412-2.587-10.911
		c-1.728-3.499-4.432-6.362-8.116-8.596c-3.68-2.233-8.307-3.352-13.879-3.352h-9.459v45.782H483.449z"/>
	<path fill="#FFFFFF" d="M546.29,251.205v1.313h-27.554v22.029h24.859v1.313h-24.859v22.509h28.517v1.313h-29.899v-48.479H546.29z"
		/>
	<path fill="#FFFFFF" d="M576.186,251.205v47.165h27.761v1.313h-29.144v-48.479H576.186z"/>
	<path fill="#FFFFFF" d="M639.92,281.52h-23.066l-7.179,18.164h-1.382l20.094-50.686h0.138l20.094,50.686h-1.521L639.92,281.52z
		 M639.436,280.28l-10.98-27.97l-11.119,27.97H639.436z"/>
</g>
</svg>
